<svg width="128" height="128" viewBox="0 0 128 128" fill="none" xmlns="http://www.w3.org/2000/svg">
<path d="M64.0001 38.541C58.9648 38.541 54.0424 40.0342 49.8558 42.8316C45.6691 45.629 42.4059 49.6052 40.479 54.2571C38.5521 58.9091 38.048 64.0281 39.0303 68.9666C40.0127 73.9052 42.4374 78.4415 45.9979 82.002C49.5584 85.5625 54.0947 87.9872 59.0332 88.9695C63.9717 89.9519 69.0907 89.4478 73.7427 87.5209C78.3947 85.5939 82.3708 82.3307 85.1683 78.1441C87.9657 73.9574 89.4589 69.0352 89.4589 63.9999H77.6475V43.1044H113.553V63.9999C113.553 73.8006 110.647 83.3812 105.202 91.5301C99.757 99.6791 92.0178 106.031 82.9632 109.781C73.9085 113.532 63.945 114.513 54.3327 112.601C44.7203 110.689 35.8907 105.969 28.9606 99.0393C22.0304 92.1092 17.311 83.2796 15.399 73.6672C13.487 64.0549 14.4682 54.0913 18.2187 45.0367C21.9693 35.9821 28.3208 28.2428 36.4697 22.7978C44.6187 17.3529 54.1994 14.4468 64.0001 14.4468V38.541Z" fill="#5ECB88" style="fill:#5ECB88;fill:color(display-p3 0.3686 0.7961 0.5333);fill-opacity:1;"/>
</svg>
